<svg width="98%" height="98%" viewBox="0 0 735 516" fill="none" xmlns="http://www.w3.org/2000/svg">
<g id="web_development">
<g id="man">
<path id="Vector" d="M98.8599 411.178H124.024L186.036 386.906C186.036 386.906 230.074 368.926 226.479 403.087C222.884 437.248 216.593 483.096 216.593 483.096C216.593 483.096 196.821 474.107 186.036 476.804C175.252 479.5 182.441 421.966 182.441 421.966C182.441 421.966 94.3662 464.218 86.2777 458.824C78.1892 453.43 76.3917 415.673 76.3917 415.673L98.8599 411.178Z" fill="#2F2E41"/>
<path id="Vector_2" d="M361.639 391.163L367.479 415.262C367.545 415.531 367.534 415.812 367.45 416.076L340.957 498.892C340.852 499.22 340.637 499.502 340.35 499.691C340.062 499.88 339.718 499.965 339.376 499.931C339.033 499.897 338.712 499.747 338.467 499.505C338.222 499.263 338.067 498.945 338.028 498.603L334.363 466.341C334.339 466.127 334.361 465.91 334.427 465.705L358.746 391.052C358.847 390.74 359.048 390.47 359.316 390.283C359.585 390.096 359.907 390.001 360.235 390.014C360.562 390.026 360.876 390.146 361.129 390.353C361.383 390.56 361.562 390.845 361.639 391.163Z" fill="#2F2E41"/>
<path id="Vector_3" opacity="0.1" d="M324.44 471.41L326.237 496.581H285.795V471.41H324.44Z" fill="black"/>
<path id="Vector_4" opacity="0.1" d="M98.8599 411.178H124.024L186.036 386.906C186.036 386.906 230.074 368.926 226.479 403.087C222.884 437.248 216.593 483.096 216.593 483.096C216.593 483.096 196.821 474.107 186.036 476.804C175.252 479.5 182.441 421.966 182.441 421.966C182.441 421.966 94.3662 464.218 86.2777 458.824C78.1892 453.43 76.3917 415.673 76.3917 415.673L98.8599 411.178Z" fill="black"/>
<path id="Vector_5" opacity="0.1" d="M272.314 479.5L272.555 479.452L271.415 490.288H248.947V479.5H272.314Z" fill="black"/>
<path id="Vector_6" d="M138.506 332.35L168.961 376.118L239.96 435.45C239.96 435.45 305.567 450.733 296.58 461.521C287.592 472.309 232.77 450.733 232.77 450.733C232.77 450.733 150.986 391.4 148.29 386.906C145.594 382.411 115.936 340.159 115.936 340.159L138.506 332.35Z" fill="#D497A0"/>
<path id="Vector_7" opacity="0.1" d="M138.506 332.35L168.961 376.118L239.96 435.45C239.96 435.45 305.567 450.733 296.58 461.521C287.592 472.309 232.77 450.733 232.77 450.733C232.77 450.733 150.986 391.4 148.29 386.906C145.594 382.411 115.936 340.159 115.936 340.159L138.506 332.35Z" fill="#D497A0"/>
<path id="Vector_8" d="M120.429 297.008L140.201 335.664C140.201 335.664 135.708 354.542 128.518 356.34C121.328 358.138 90.7714 332.967 90.7714 332.967L120.429 297.008Z" fill="#D0CDE1"/>
<path id="Vector_9" opacity="0.1" d="M120.429 297.008L140.201 335.664C140.201 335.664 135.708 354.542 128.518 356.34C121.328 358.138 90.7714 332.967 90.7714 332.967L120.429 297.008Z" fill="black"/>
<path id="Vector_10" d="M359.491 393.198L364.883 413.875L341.516 489.389L336.124 466.016L359.491 393.198Z" fill="#F2F2F2"/>
<path id="Vector_11" d="M241.757 505.571C242.656 508.268 335.225 504.672 336.124 503.773C336.907 502.647 337.57 501.442 338.101 500.177C338.946 498.379 339.719 496.581 339.719 496.581L336.124 467.472L244.454 464.218C244.454 464.218 242.162 488.886 241.694 500.177C241.578 503.027 241.578 505.031 241.757 505.571Z" fill="#2F2E41"/>
<path id="Vector_12" d="M133.91 284.422C156.246 284.422 174.353 266.31 174.353 243.968C174.353 221.626 156.246 203.514 133.91 203.514C111.574 203.514 93.4675 221.626 93.4675 243.968C93.4675 266.31 111.574 284.422 133.91 284.422Z" fill="#D497A0"/>
<path id="Vector_13" d="M131.214 279.927C131.214 279.927 117.733 303.3 115.037 315.886C112.341 328.472 74.5943 290.715 74.5943 290.715L69.6513 277.68C69.6513 277.68 105.151 261.048 102.455 247.564C99.7586 234.079 131.214 279.927 131.214 279.927Z" fill="#D497A0"/>
<path id="Vector_14" d="M138.404 350.047L175.252 398.592L263.327 464.218C263.327 464.218 327.136 477.703 312.757 487.591C298.377 497.48 257.036 478.601 257.036 478.601C257.036 478.601 168.062 430.956 149.189 411.178C130.315 391.4 95.265 358.138 95.265 358.138L138.404 350.047Z" fill="#D597A0"/>
<path id="Vector_15" d="M88.9739 425.562L99.7586 442.642L164.123 422.387C178.245 417.943 193.731 419.578 206.258 427.472C217.492 434.551 224.682 445.789 208.504 462.42C176.15 495.682 154.581 477.702 154.581 477.702C154.581 477.702 45.835 528.944 27.8605 503.773C9.886 478.601 8.9873 466.016 8.9873 466.016C8.9873 466.016 78.1892 422.865 88.9739 425.562Z" fill="#2F2E41"/>
<path id="Vector_16" d="M223.783 484.894C223.783 484.894 252.542 503.773 218.39 512.763C184.239 521.752 159.075 509.167 159.075 509.167C159.075 509.167 129.417 509.167 129.417 493.884C129.417 478.601 139.303 476.803 139.303 476.803L169.859 481.298C169.859 481.298 206.707 471.41 223.783 484.894Z" fill="#D0CDE1"/>
<path id="Vector_17" d="M167.087 233.791C169.84 235.019 172.57 236.472 175.562 236.828C178.555 237.184 181.963 236.139 183.379 233.478C184.144 232.041 184.231 230.35 184.267 228.722C184.375 223.786 184.018 218.449 180.891 214.629C178.9 212.197 175.995 210.665 173.935 208.292C172.459 206.593 171.476 204.533 170.418 202.545C166.412 195.018 160.479 187.784 152.235 185.614C148.792 184.707 145.18 184.752 141.62 184.802L120.858 185.095C117.498 185.142 114.086 185.197 110.87 186.17C104.187 188.191 99.3207 193.813 94.8643 199.189C91.5302 203.211 88.1873 207.274 85.6851 211.861C82.0976 218.553 80.2836 226.054 80.4159 233.647C80.3881 235.594 80.6395 237.536 81.1623 239.412C81.774 241.132 82.5318 242.797 83.4275 244.388C87.3212 252.038 89.6331 261.594 85.2481 268.973C92.8653 265.861 100.402 261.78 105.427 255.262C107.675 252.346 109.438 248.933 112.433 246.794C115.429 244.654 120.31 244.468 122.232 247.608C122.893 248.879 123.233 250.291 123.223 251.723C123.363 254.08 123.36 256.528 124.359 258.667C125.358 260.807 127.738 262.533 130.01 261.893C133.923 260.79 133.548 254.783 136.562 252.054C138.851 249.982 142.382 250.378 145.322 249.437C148.749 248.341 151.319 245.372 152.784 242.086C153.897 239.588 153.881 233.052 155.988 231.699C158.63 230.002 164.638 232.699 167.087 233.791Z" fill="#2F2E41"/>
<path id="Vector_18" d="M66.4409 273.415C68.2603 272.93 70.1757 272.935 71.9927 273.429C77.7618 274.979 90.6946 279.08 93.4675 285.321C97.0624 293.412 109.645 305.997 109.645 305.997C109.645 305.997 126.72 323.078 123.125 334.765C119.531 346.451 106.05 359.936 106.05 359.936C106.05 359.936 109.645 415.673 91.6701 430.057C73.6955 444.44 66.5057 434.551 66.5057 448.036C66.5057 461.521 10.7847 503.773 0 477.702C0 477.702 5.39236 429.158 3.59491 412.077C1.82338 395.243 4.4168 290.211 66.4409 273.415Z" fill="#D0CDE1"/>
<path id="Vector_19" d="M95.265 296.109C95.265 296.109 150.087 336.563 140.201 353.643C140.201 353.643 106.948 369.825 99.7586 368.926C92.5688 368.027 64.7083 336.563 57.5185 333.866C50.3287 331.169 46.7338 282.624 95.265 296.109Z" fill="#D0CDE1"/>
<path id="Vector_20" opacity="0.1" d="M241.757 505.571C242.656 508.268 335.225 504.672 336.124 503.773C336.907 502.647 337.57 501.442 338.101 500.177H241.694C241.578 503.027 241.578 505.031 241.757 505.571Z" fill="black"/>
</g>
<g id="chart">
<path id="Vector_21" d="M706.331 114.563H457.533V62.4871H706.331V114.563ZM458.629 113.467H705.235V63.5834H458.629V113.467Z" fill="#3F3D56"/>
<path id="Vector_22" d="M688.247 72.9023H440.545V123.882H688.247V72.9023Z" fill="#00D1FF"/>
<path id="Vector_23" d="M283.96 24.2524C286.079 24.2524 287.796 22.5344 287.796 20.4152C287.796 18.2959 286.079 16.5779 283.96 16.5779C281.842 16.5779 280.124 18.2959 280.124 20.4152C280.124 22.5344 281.842 24.2524 283.96 24.2524Z" fill="#63E3FF"/>
<path id="Vector_24" d="M297.113 24.2524C299.231 24.2524 300.949 22.5344 300.949 20.4152C300.949 18.2959 299.231 16.5779 297.113 16.5779C294.994 16.5779 293.276 18.2959 293.276 20.4152C293.276 22.5344 294.994 24.2524 297.113 24.2524Z" fill="#63E3FF"/>
<path id="Vector_25" d="M310.265 24.2524C312.384 24.2524 314.101 22.5344 314.101 20.4152C314.101 18.2959 312.384 16.5779 310.265 16.5779C308.146 16.5779 306.429 18.2959 306.429 20.4152C306.429 22.5344 308.146 24.2524 310.265 24.2524Z" fill="#63E3FF"/>
<path id="Vector_26" d="M734.428 310.396H273V10H734.428V310.396ZM274.096 309.3H733.332V11.0963H274.096V309.3Z" fill="#3F3D56"/>
<path id="Vector_27" d="M733.88 26.6287H273.548V27.725H733.88V26.6287Z" fill="#3F3D56"/>
<path id="Vector_28" d="M418.622 27.1768H417.526V310.273H418.622V27.1768Z" fill="#3F3D56"/>
<path id="Vector_29" d="M550.421 166.365H469.863V177.328H550.421V166.365Z" fill="#F2F2F2"/>
<path id="Vector_30" d="M677.012 166.365H596.454V177.328H677.012V166.365Z" fill="#F2F2F2"/>
<path id="Vector_31" d="M555.353 172.395H473.699V160.335H555.353V172.395ZM474.795 171.298H554.257V161.431H474.795V171.298Z" fill="#3F3D56"/>
<path id="Vector_32" d="M550.421 251.331H469.863V262.294H550.421V251.331Z" fill="#F2F2F2"/>
<path id="Vector_33" d="M555.353 257.361H473.699V245.301H555.353V257.361ZM474.795 256.265H554.257V246.398H474.795V256.265Z" fill="#3F3D56"/>
<path id="Vector_34" d="M677.286 207.752H470.137V218.715H677.286V207.752Z" fill="#F2F2F2"/>
<path id="Vector_35" d="M682.219 214.878H473.973V202.818H682.219V214.878ZM475.069 213.782H681.123V203.914H475.069V213.782Z" fill="#3F3D56"/>
<path id="Vector_36" d="M681.945 172.395H600.291V160.335H681.945V172.395ZM601.387 171.298H680.849V161.431H601.387V171.298Z" fill="#3F3D56"/>
<path id="Vector_37" d="M347.141 205.036C338.225 205.036 329.509 202.391 322.095 197.436C314.682 192.481 308.904 185.438 305.492 177.199C302.08 168.959 301.187 159.892 302.926 151.145C304.666 142.397 308.959 134.362 315.264 128.056C321.569 121.749 329.601 117.455 338.346 115.715C347.091 113.975 356.155 114.868 364.393 118.281C372.63 121.694 379.671 127.474 384.625 134.889C389.578 142.305 392.222 151.023 392.222 159.942C392.209 171.897 387.455 183.359 379.003 191.813C370.552 200.267 359.093 205.022 347.141 205.036ZM347.141 116.215C338.495 116.215 330.043 118.779 322.854 123.584C315.666 128.389 310.062 135.218 306.754 143.208C303.445 151.198 302.579 159.99 304.266 168.473C305.953 176.955 310.116 184.746 316.23 190.862C322.344 196.977 330.133 201.142 338.613 202.829C347.093 204.516 355.882 203.65 363.87 200.341C371.858 197.031 378.685 191.426 383.489 184.235C388.292 177.045 390.856 168.59 390.856 159.942C390.843 148.349 386.233 137.234 378.038 129.037C369.842 120.839 358.731 116.228 347.141 116.215Z" fill="#00A3FF"/>
</g>
<g id="leaf">
<path id="Vector_38" d="M590.25 479.922C585.48 498.095 568.762 509.451 568.762 509.451C568.762 509.451 559.78 491.344 564.551 473.171C569.322 454.999 586.039 443.642 586.039 443.642C586.039 443.642 595.021 461.749 590.25 479.922Z" fill="#03FFA4"/>
<path id="Vector_39" d="M583.014 476.078C569.652 489.283 568.157 509.441 568.157 509.441C568.157 509.441 588.327 508.19 601.689 494.985C615.051 481.78 616.546 461.621 616.546 461.621C616.546 461.621 596.376 462.873 583.014 476.078Z" fill="#E74E97"/>
<path id="Vector_40" d="M704.263 508.642H510.961V510.008H704.263V508.642Z" fill="#3F3D56"/>
</g>
</g>
</svg>
